<svg width="32" height="32" viewBox="0 0 32 32" fill="none" xmlns="http://www.w3.org/2000/svg">
<path d="M0 10.624C0 1.87514 1.87514 0 10.624 0H21.376C30.1249 0 32 1.87514 32 10.624V21.376C32 30.1249 30.1249 32 21.376 32H10.624C1.87514 32 0 30.1249 0 21.376V10.624Z" fill="#F0EDE6"/>
<path d="M13 7H9C7.89543 7 7 7.89543 7 9V13C7 14.1046 7.89543 15 9 15H13C14.1046 15 15 14.1046 15 13V9C15 7.89543 14.1046 7 13 7Z" stroke="#2B2A27" stroke-width="2" stroke-linecap="round" stroke-linejoin="round"/>
<path d="M11 15V19C11 19.5304 11.2107 20.0391 11.5858 20.4142C11.9609 20.7893 12.4696 21 13 21H17" stroke="#2B2A27" stroke-width="2" stroke-linecap="round" stroke-linejoin="round"/>
<path d="M23 17H19C17.8954 17 17 17.8954 17 19V23C17 24.1046 17.8954 25 19 25H23C24.1046 25 25 24.1046 25 23V19C25 17.8954 24.1046 17 23 17Z" stroke="#2B2A27" stroke-width="2" stroke-linecap="round" stroke-linejoin="round"/>
</svg>
